<svg data-v-0dd9719b="" version="1.0" xmlns="http://www.w3.org/2000/svg" xmlns:xlink="http://www.w3.org/1999/xlink" width="100%" height="100%" viewBox="0 0 340.000000 250.000000" preserveAspectRatio="xMidYMid meet" color-interpolation-filters="sRGB" style="margin: auto;"> <rect data-v-0dd9719b="" x="0" y="0" width="100%" height="100%" fill="#fff" fill-opacity="1" class="background"></rect> <rect data-v-0dd9719b="" x="0" y="0" width="100%" height="100%" fill="url(#watermark)" fill-opacity="1" class="watermarklayer"></rect> <g data-v-0dd9719b="" fill="#333" class="icon-text-wrapper icon-svg-group iconsvg" transform="translate(55.07499694824219,95)"><g class="iconsvg-imagesvg" transform="translate(0,0)"><g><rect fill="#333" fill-opacity="0" stroke-width="2" x="0" y="0" width="60" height="60" class="image-rect"></rect> <svg x="0" y="0" width="60" height="60" filtersec="colorsb3514416275" class="image-svg-svg primary" style="overflow: visible;"><svg xmlns="http://www.w3.org/2000/svg" viewBox="0 0 100 100"><path d="M53.46 98.92c8.29-1.68 14.63-10.08 18.45-19a88.77 88.77 0 0 1-18.45 2.45zM26.75 25.67a81.35 81.35 0 0 0-3.31 20.88h24.19V22.36a81.35 81.35 0 0 0-20.88 3.31zM47.63 0C39.34 1.68 33 10.08 29.17 19a89.64 89.64 0 0 1 18.46-2.45zm-30 46.55a90.24 90.24 0 0 1 2.45-18.46c-8.9 3.82-17.3 10.17-19 18.46zm60 5.82H53.46v24.19a81.65 81.65 0 0 0 20.87-3.3 81.5 81.5 0 0 0 3.31-20.89zM69 95.69A49.92 49.92 0 0 0 96.77 67.9 53.77 53.77 0 0 1 79 77.87a53.77 53.77 0 0 1-10 17.82zM32.11 3.23A49.89 49.89 0 0 0 4.32 31a53.57 53.57 0 0 1 17.82-10 53.57 53.57 0 0 1 9.97-17.77zM100 52.37H83.47A89.46 89.46 0 0 1 81 70.83c8.93-3.83 17.33-10.16 19-18.46z" fill="#3a46d6"></path><path d="M69 31h15.49v15.55H100V31H84.49V15.51H69V0H53.45v15.51H69V31H53.45v15.55H69zM31 69H15.52V53.45H0V69h15.52v15.49H31V100h15.55V84.49H31V69h15.55V53.45H31z" fill="#2ca6f1" fill-rule="evenodd"></path></svg></svg> <!----></g></g> <g transform="translate(67,6.453622817993164)"><g data-gra="path-name" fill-rule="" class="tp-name iconsvg-namesvg" transform="translate(0,0)"><g transform="scale(1)"><g><path d="M3.69 0.4L5.85-14.89 2.43-14.89 3.06-19.17 6.43-19.17 8.01-30.29 6.57-31.99 16.83-31.99 15.03-19.17 16.61-19.17 28.66-31.14 38.07-31.14 26.01-19.17 38.97-19.17 38.34-14.89 14.4-14.89 13-4.86 18.22-5.49 17.64-1.21 3.69 0.4ZM21.02-13.18L30.42-13.18 37.89 0.4 28.48 0.4 21.02-13.18ZM47.7-24.61L54.85-24.61 55.89-25.88 46.98-25.88 47.48-29.34 58.63-29.34 60.03-31.05 59.27-31.95 68.89-31.95 66.83-29.34 81.04-29.34 80.55-25.88 64.03-25.88 63.05-24.61 79.38-24.61 78.88-21.11 60.21-21.11 59.22-19.84 80.64-19.84 80.14-16.43 76.23-16.43 80.55-9.86 76.54-9.86 75.15-0.04 45.13-0.04 46.53-9.95 43.11-9.95 48.28-16.43 44.5-16.43 45-19.84 51.03-19.84 52.06-21.11 47.2-21.11 47.7-24.61ZM56.47-16.43L54.58-14.04 70.25-14.04 68.72-16.43 56.47-16.43ZM53.05-10.44L52.78-8.73 69.93-8.73 70.2-10.44 53.05-10.44ZM52.06-3.65L69.21-3.65 69.44-5.35 52.29-5.35 52.06-3.65ZM107.91-13.32L115.88-13.32 118.57 0.32 110.61 0.32 110.29-1.17 84.64 0 85.27-4.63 93.69-16.25 84.33-16.25 84.91-20.56 122.63-20.56 122.04-16.25 103.09-16.25 95.17-5.13 109.39-5.8 107.91-13.32ZM89.77-31.18L121.5-31.18 120.87-26.77 89.14-26.77 89.77-31.18ZM135.99-26.73L134.14-26.73 130.36 0.27 124.47 0.27 128.88-31.14 141.97-31.14 141.34-26.77 139.41-20.02 140.94-20.02 140.71-16.16 138.24-4.63 131.98-4.63 132.52-8.46 133.88-8.46 135.49-16.16 133.51-16.16 134.05-20.02 135.99-26.73ZM161.14 0.27L151.6 0.27 153.22-11.61 150.88-11.61 145.57 0.27 139.14 0.27 144.4-11.61 140.71-11.61 141.3-15.88 163.44-15.88 162.85-11.61 159.57-11.61 158.63-4.72 160.02-4.72 162.09-6.43 161.14 0.27ZM157.9-22.9L158.22-25.06 149.22-25.06 148.9-22.9 142.24-22.9 143.14-29.29 149.98-29.29 150.12-30.24 148.63-31.95 157.68-31.95 157.32-29.29 165.28-29.29 164.38-22.9 157.9-22.9ZM143.77-21.91L162.67-21.91 162.09-17.64 143.19-17.64 143.77-21.91Z" transform="translate(-2.430000066757202, 31.989999771118164)"></path></g> <!----> <!----> <!----> <!----> <!----> <!----> <!----></g></g> <g data-gra="path-slogan" fill-rule="" class="tp-slogan iconsvg-slogansvg" fill="#333" transform="translate(0.9449996948242188,38.38999938964844)"><!----> <!----> <g transform="scale(1, 1)"><g transform="scale(1)"><path d="M7.83-5.88L7.83-5.88L6.74-5.88Q6.33-7.56 4.42-7.61L4.42-7.61Q1.78-7.47 1.69-4.24L1.69-4.24Q1.69-0.77 4.46-0.77L4.46-0.77Q6.38-0.82 6.83-3.10L6.83-3.10L7.93-3.10Q7.42 0.05 4.24 0.14L4.24 0.14Q0.59 0 0.50-4.19L0.50-4.19Q0.68-8.38 4.42-8.56L4.42-8.56Q7.38-8.47 7.83-5.88ZM9.55-4.92L13.92-4.92L13.92-8.34L15.06-8.34L15.06 0L13.92 0L13.92-3.87L9.55-3.87L9.55 0L8.41 0L8.41-8.34L9.55-8.34L9.55-4.92ZM21.46 0L20.65-2.41L17.27-2.41L16.41 0L15.27 0L18.41-8.34L19.69-8.34L22.69 0L21.46 0ZM18.96-7.11L17.64-3.42L20.24-3.42L19.01-7.11L18.96-7.11ZM24.23-8.34L28.42-1.59L28.42-8.34L29.51-8.34L29.51 0L28.23 0L24.00-6.74L23.95-6.74L23.95 0L22.86 0L22.86-8.34L24.23-8.34ZM36.64-3.51L34.09-3.51L34.09-4.46L37.74-4.46L37.74 0L37.01 0L36.74-1.05Q35.78 0.09 34.00 0.14L34.00 0.14Q32.32 0.14 31.41-0.73L31.41-0.73Q30.04-2.00 30.09-4.24L30.09-4.24Q30.40-8.38 34.05-8.56L34.05-8.56Q37.15-8.38 37.60-5.83L37.60-5.83L36.51-5.83Q36.05-7.56 34.00-7.61L34.00-7.61Q31.41-7.42 31.27-4.19L31.27-4.19Q31.27-0.73 34.05-0.73L34.05-0.73Q35.05-0.73 35.78-1.28L35.78-1.28Q36.69-2.00 36.64-3.51L36.64-3.51ZM45.60-5.88L45.60-5.88L44.51-5.88Q44.10-7.56 42.18-7.61L42.18-7.61Q39.54-7.47 39.45-4.24L39.45-4.24Q39.45-0.77 42.23-0.77L42.23-0.77Q44.14-0.82 44.60-3.10L44.60-3.10L45.69-3.10Q45.19 0.05 42.00 0.14L42.00 0.14Q38.36 0 38.27-4.19L38.27-4.19Q38.45-8.38 42.18-8.56L42.18-8.56Q45.15-8.47 45.60-5.88ZM47.31-4.92L51.69-4.92L51.69-8.34L52.83-8.34L52.83 0L51.69 0L51.69-3.87L47.31-3.87L47.31 0L46.18 0L46.18-8.34L47.31-8.34L47.31-4.92ZM59.23-3.10L59.23-8.34L60.37-8.34L60.37-2.96Q60.23 0.05 56.95 0.14L56.95 0.14Q53.90 0.05 53.77-2.78L53.77-2.78L53.77-8.34L54.90-8.34L54.90-3.10Q54.95-0.82 57.00-0.77L57.00-0.77Q59.23-0.82 59.23-3.10L59.23-3.10ZM62.63-8.34L66.82-1.59L66.82-8.34L67.91-8.34L67.91 0L66.64 0L62.40-6.74L62.36-6.74L62.36 0L61.26 0L61.26-8.34L62.63-8.34ZM78.17-5.88L78.17-5.88L77.08-5.88Q76.67-7.56 74.76-7.61L74.76-7.61Q72.12-7.47 72.03-4.24L72.03-4.24Q72.03-0.77 74.80-0.77L74.80-0.77Q76.72-0.82 77.17-3.10L77.17-3.10L78.27-3.10Q77.76 0.05 74.58 0.14L74.58 0.14Q70.93 0 70.84-4.19L70.84-4.19Q71.02-8.38 74.76-8.56L74.76-8.56Q77.72-8.47 78.17-5.88ZM78.75-8.34L79.89-8.34L79.89-1.00L84.12-1.00L84.12 0L78.75 0L78.75-8.34ZM90.99-4.14L90.99-4.14Q90.80-7.42 88.07-7.61L88.07-7.61Q85.29-7.47 85.16-4.14L85.16-4.14Q85.29-0.91 88.07-0.77L88.07-0.77Q90.80-0.96 90.99-4.14ZM92.12-4.14L92.12-4.14Q91.85 0 88.07 0.14L88.07 0.14Q84.25 0 83.97-4.14L83.97-4.14Q84.20-8.47 88.07-8.56L88.07-8.56Q91.85-8.43 92.12-4.14ZM98.12-3.10L98.12-8.34L99.26-8.34L99.26-2.96Q99.12 0.05 95.84 0.14L95.84 0.14Q92.79 0.05 92.65-2.78L92.65-2.78L92.65-8.34L93.79-8.34L93.79-3.10Q93.84-0.82 95.89-0.77L95.89-0.77Q98.12-0.82 98.12-3.10L98.12-3.10ZM103.57 0L100.20 0L100.20-8.34L103.61-8.34Q106.99-8.15 107.12-4.28L107.12-4.28Q106.94-0.09 103.57 0L103.57 0ZM103.43-7.42L101.34-7.42L101.34-0.96L103.52-0.96Q105.89-1.09 105.98-4.19L105.98-4.19Q105.94-7.33 103.43-7.42L103.43-7.42ZM115.61 0L114.79-2.41L111.42-2.41L110.55 0L109.41 0L112.55-8.34L113.83-8.34L116.84 0L115.61 0ZM113.10-7.11L111.78-3.42L114.38-3.42L113.15-7.11L113.10-7.11ZM123.97-5.88L123.97-5.88L122.88-5.88Q122.47-7.56 120.55-7.61L120.55-7.61Q117.91-7.47 117.82-4.24L117.82-4.24Q117.82-0.77 120.60-0.77L120.60-0.77Q122.51-0.82 122.97-3.10L122.97-3.10L124.06-3.10Q123.56 0.05 120.37 0.14L120.37 0.14Q116.73 0 116.64-4.19L116.64-4.19Q116.82-8.38 120.55-8.56L120.55-8.56Q123.51-8.47 123.97-5.88ZM130.06 0L129.24-2.41L125.87-2.41L125.00 0L123.86 0L127.01-8.34L128.28-8.34L131.29 0L130.06 0ZM127.55-7.11L126.23-3.42L128.83-3.42L127.60-7.11L127.55-7.11ZM134.87 0L131.50 0L131.50-8.34L134.91-8.34Q138.28-8.15 138.42-4.28L138.42-4.28Q138.24-0.09 134.87 0L134.87 0ZM134.73-7.42L132.64-7.42L132.64-0.96L134.82-0.96Q137.19-1.09 137.28-4.19L137.28-4.19Q137.24-7.33 134.73-7.42L134.73-7.42ZM140.27-1.00L145.28-1.00L145.28 0L139.13 0L139.13-8.34L145.19-8.34L145.19-7.38L140.27-7.38L140.27-4.78L144.83-4.78L144.83-3.78L140.27-3.78L140.27-1.00ZM153.92-8.34L153.92 0L152.83 0L152.83-4.92Q152.83-5.60 152.83-7.01L152.83-7.01L150.46 0L149.32 0L147.00-7.01L146.95-7.01Q146.95-6.51 147.00-5.51L147.00-5.51Q147.00-5.01 147.00-4.92L147.00-4.92L147.00 0L145.86 0L145.86-8.34L147.50-8.34L149.91-1.28L152.28-8.34L153.92-8.34ZM161.46-8.34L158.32-3.37L158.32 0L157.18 0L157.18-3.37L154.04-8.34L155.36-8.34L157.73-4.33L160.14-8.34L161.46-8.34Z" transform="translate(-0.5010121457489879, 8.562753036437247)"></path></g></g></g></g></g><defs v-gra="od"></defs></svg>